<svg xmlns="http://www.w3.org/2000/svg" viewBox="0 0 512 512">
  <rect width="512" height="512" rx="96" fill="#0f172a"/>
  <g transform="translate(256,256)">
    <!-- Syringe body -->
    <rect x="-20" y="-140" width="40" height="200" rx="6" fill="#3b82f6"/>
    <rect x="-28" y="-140" width="56" height="12" rx="4" fill="#60a5fa"/>
    <rect x="-28" y="48" width="56" height="12" rx="4" fill="#60a5fa"/>
    <!-- Needle -->
    <rect x="-4" y="60" width="8" height="80" rx="2" fill="#94a3b8"/>
    <polygon points="-4,140 4,140 0,160" fill="#94a3b8"/>
    <!-- Plunger -->
    <rect x="-8" y="-180" width="16" height="48" rx="4" fill="#64748b"/>
    <rect x="-16" y="-184" width="32" height="8" rx="4" fill="#94a3b8"/>
    <!-- Measurement lines -->
    <rect x="20" y="-120" width="12" height="2" fill="#1e293b"/>
    <rect x="20" y="-90" width="12" height="2" fill="#1e293b"/>
    <rect x="20" y="-60" width="12" height="2" fill="#1e293b"/>
    <rect x="20" y="-30" width="12" height="2" fill="#1e293b"/>
    <rect x="20" y="0" width="12" height="2" fill="#1e293b"/>
    <rect x="20" y="30" width="12" height="2" fill="#1e293b"/>
    <!-- Liquid fill -->
    <rect x="-16" y="-30" width="32" height="74" rx="2" fill="#8b5cf6" opacity="0.5"/>
  </g>
  <!-- 69 text -->
  <text x="256" y="480" font-family="sans-serif" font-size="72" font-weight="bold" fill="#f1f5f9" text-anchor="middle" opacity="0.3">69W</text>
</svg>
